<svg xmlns="http://www.w3.org/2000/svg" version="1.1" xmlns:xlink="http://www.w3.org/1999/xlink" xmlns:svgjs="http://svgjs.dev/svgjs" width="1000" height="1000" viewBox="0 0 1000 1000"><rect width="1000" height="1000" fill="#000000"></rect><g transform="matrix(0.7,0,0,0.7,149.57575757575756,356.9129374245362)"><svg viewBox="0 0 396 162" data-background-color="#0a1627" preserveAspectRatio="xMidYMid meet" height="409" width="1000" xmlns="http://www.w3.org/2000/svg" xmlns:xlink="http://www.w3.org/1999/xlink"><g id="tight-bounds" transform="matrix(1,0,0,1,0.2400000000000091,-0.03561251405820087)"><svg viewBox="0 0 395.52 162.07088126271256" height="162.07088126271256" width="395.52"><g><svg viewBox="0 0 395.52 162.07088126271256" height="162.07088126271256" width="395.52"><g><svg viewBox="0 0 395.52 162.07088126271256" height="162.07088126271256" width="395.52"><g id="textblocktransform"><svg viewBox="0 0 395.52 162.07088126271256" height="162.07088126271256" width="395.52" id="textblock"><g><svg viewBox="0 0 395.52 60.97347626339968" height="60.97347626339968" width="395.52"><g transform="matrix(1,0,0,1,0,0)"><svg width="395.52" viewBox="-6.9 -34.9 293.83 45.3" height="60.97347626339968" data-palette-color="#fe0039"><path d="M0.6 5L0.6 5Q2.4 5 3.15 4.08 3.9 3.15 3.9 0.45L3.9 0.45 3.9-28.65Q1.85-29.4 1.15-30.35L1.15-30.35 1.65-34.5 13.35-34.5 13.85-30.35Q13.05-29.4 11.1-28.65L11.1-28.65 11.05 0Q11.05 5.75 8.83 8.08 6.6 10.4 1.63 10.4-3.35 10.4-6.9 7.8L-6.9 7.8Q-6.9 7.5-6.9 6.73-6.9 5.95-6.58 4.17-6.25 2.4-5.65 1.2L-5.65 1.2-1.15 1.2Q-0.45 2.3-0.15 4.95L-0.15 4.95Q0.1 5 0.6 5ZM27.25-34.75L34.1-34.75 44.05-5.9Q46.15-5.15 47-4.15L47-4.15 46.5 0 34.8 0 34.3-4.15Q34.9-4.95 36.7-5.65L36.7-5.65 35.35-9.85 25.35-9.85 24.1-5.8Q25.85-5.1 26.7-4.15L26.7-4.15 26.2 0 14.8 0 14.3-4.15Q15.2-5.3 17.65-6.05L17.65-6.05 27.25-34.75ZM30.65-27.75L29.95-27.75Q29.95-24.7 28.7-20.65L28.7-20.65 26.75-14.45 33.9-14.45 32-20.55Q30.85-24.05 30.7-26.9L30.7-26.9 30.65-27.75ZM60.64-12L60.64-12 58.39-12 58.39-6.1Q62.05-5.3 62.95-4.15L62.95-4.15 62.45 0 48.95 0 48.45-4.15Q49.09-5 51.2-5.8L51.2-5.8 51.2-28.65Q49.14-29.4 48.45-30.35L48.45-30.35 48.95-34.5 62.2-34.5Q69.14-34.4 72.57-31.98 76-29.55 76-23.35L76-23.35Q76-12 60.64-12ZM61.39-29.05L61.39-29.05 58.39-29.05 58.39-17.45 61.74-17.45Q65.14-17.45 66.82-18.8 68.5-20.15 68.5-23.48 68.5-26.8 66.67-27.93 64.84-29.05 61.39-29.05ZM90.94-12L90.94-12 88.69-12 88.69-6.1Q92.34-5.3 93.24-4.15L93.24-4.15 92.74 0 79.24 0 78.74-4.15Q79.39-5 81.49-5.8L81.49-5.8 81.49-28.65Q79.44-29.4 78.74-30.35L78.74-30.35 79.24-34.5 92.49-34.5Q99.44-34.4 102.87-31.98 106.29-29.55 106.29-23.35L106.29-23.35Q106.29-12 90.94-12ZM91.69-29.05L91.69-29.05 88.69-29.05 88.69-17.45 92.04-17.45Q95.44-17.45 97.12-18.8 98.79-20.15 98.79-23.48 98.79-26.8 96.97-27.93 95.14-29.05 91.69-29.05ZM109.54-34.5L132.34-34.5 132.34-25.8 128.64-25.35Q127.49-26.35 126.79-29.05L126.79-29.05 118.99-29.05 118.99-19.95 125.94-19.95Q126.54-21.45 127.19-22.05L127.19-22.05 130.34-21.7 130.34-12.8 127.19-12.4Q126.54-12.9 125.94-14.5L125.94-14.5 118.99-14.5 118.99-6.2Q122.34-5.45 123.84-4.15L123.84-4.15 123.34 0 109.54 0 109.04-4.15Q109.69-5 111.79-5.8L111.79-5.8 111.79-28.65Q109.74-29.4 109.04-30.35L109.04-30.35 109.54-34.5ZM135.69-34.5L147.39-34.5 147.89-30.35Q147.09-29.4 145.14-28.65L145.14-28.65 145.14-5.8Q147.14-5 147.89-4.15L147.89-4.15 147.39 0 135.69 0 135.19-4.15Q135.84-5 137.94-5.8L137.94-5.8 137.94-28.65Q135.89-29.4 135.19-30.35L135.19-30.35 135.69-34.5ZM169.44-28.6L169.44-28.6Q167.94-29.25 164.94-29.25 161.94-29.25 160.09-26.65 158.24-24.05 158.24-17.55 158.24-11.05 160.01-8.33 161.79-5.6 165.29-5.6L165.29-5.6Q170.64-5.6 174.89-7.2L174.89-7.2 176.69-2.75Q171.39 0.4 164.24 0.4 157.09 0.4 153.91-3.65 150.74-7.7 150.74-16.9 150.74-26.1 154.66-30.5 158.59-34.9 165.69-34.9L165.69-34.9Q171.39-34.9 176.54-31.75L176.54-31.75Q176.54-31.45 176.54-30.6 176.54-29.75 176.19-27.7 175.84-25.65 175.19-24.35L175.19-24.35 170.44-24.35Q169.74-25.7 169.44-28.6ZM178.13-34.45L206.13-34.45 206.13-27.3 202.98-26.9Q202.33-27.4 201.73-29L201.73-29 195.73-29 195.73-5.8Q197.73-5 198.48-4.15L198.48-4.15 197.98 0 186.28 0 185.78-4.15Q186.43-5 188.53-5.8L188.53-5.8 188.53-29 182.53-29Q181.93-27.4 181.28-26.9L181.28-26.9 178.13-27.3 178.13-34.45ZM208.63-34.5L220.33-34.5 220.83-30.35Q220.03-29.4 218.08-28.65L218.08-28.65 218.08-5.8Q220.08-5 220.83-4.15L220.83-4.15 220.33 0 208.63 0 208.13-4.15Q208.78-5 210.88-5.8L210.88-5.8 210.88-28.65Q208.83-29.4 208.13-30.35L208.13-30.35 208.63-34.5ZM237.78 0.4Q230.68 0.4 227.15-3.7 223.63-7.8 223.63-16.98 223.63-26.15 227.5-30.53 231.38-34.9 238.55-34.9 245.73-34.9 249.25-31 252.78-27.1 252.78-17.95 252.78-8.8 248.83-4.2 244.88 0.4 237.78 0.4ZM232.93-26.65Q231.13-24.05 231.13-17.6 231.13-11.15 233.03-8.2 234.93-5.25 238.25-5.25 241.58-5.25 243.43-8.03 245.28-10.8 245.28-17.25L245.28-17.25Q245.28-29.25 238.08-29.25L238.08-29.25Q234.73-29.25 232.93-26.65ZM263.93-18.85L263.93-18.85 263.93-5.7Q265.78-5 266.68-3.85L266.68-3.85 266.18 0 256.38 0 255.88-3.85Q256.78-5 258.63-5.7L258.63-5.7 258.63-28.8Q256.58-29.55 255.78-30.65L255.78-30.65 256.28-34.5 266.58-34.5 276.53-15.1Q277.63-13 278.68-9.5L278.68-9.5 279.03-8.3 279.58-8.5Q278.88-12.85 278.88-15.8L278.88-15.8 278.88-28.75Q277.08-29.45 276.13-30.65L276.13-30.65 276.63-34.5 286.43-34.5 286.93-30.65Q285.98-29.45 284.18-28.75L284.18-28.75 284.18 0 276.33 0 266.28-19.55Q265.18-21.65 264.13-25.2L264.13-25.2 263.78-26.35 263.23-26.15Q263.93-21.8 263.93-18.85Z" opacity="1" transform="matrix(1,0,0,1,0,0)" fill="#ffffff" class="wordmark-text-0" data-fill-palette-color="primary" id="text-0"></path></svg></g></svg></g><g transform="matrix(1,0,0,1,0,89.76222502811638)"><svg viewBox="0 0 395.52 72.3086562345962" height="72.3086562345962" width="395.52"><path d="M395.52 0l-12.051 36.154 12.051 36.155h-395.52l12.051-36.155-12.051-36.154z" data-fill-palette-color="tertiary" opacity="1" fill="#ffffff"></path><g transform="matrix(1,0,0,1,75.54432,14.394374382358343)"><svg width="244.43135999999998" viewBox="-0.3 -36.15 261.43 46.55" height="43.51990746987951" data-palette-color="#0a1627"><path d="M12.65-34.75L19.5-34.75 29.45-5.9Q31.55-5.15 32.4-4.15L32.4-4.15 31.9 0 20.2 0 19.7-4.15Q20.3-4.95 22.1-5.65L22.1-5.65 20.75-9.85 10.75-9.85 9.5-5.8Q11.25-5.1 12.1-4.15L12.1-4.15 11.6 0 0.2 0-0.3-4.15Q0.6-5.3 3.05-6.05L3.05-6.05 12.65-34.75ZM16.05-27.75L15.35-27.75Q15.35-24.7 14.1-20.65L14.1-20.65 12.15-14.45 19.3-14.45 17.4-20.55Q16.25-24.05 16.1-26.9L16.1-26.9 16.05-27.75ZM45.05 5.3L45.05 5.3Q49.5 5.3 49.5-0.05L49.5-0.05 49.5-2.25Q47.05-0.75 43.35-0.75L43.35-0.75Q38.65-0.75 36.12-3.5 33.6-6.25 33.6-12.65L33.6-12.65Q33.6-25.4 45.3-25.4L45.3-25.4Q48.3-25.4 50.9-24.1L50.9-24.1Q51.4-25 52.4-25L52.4-25 56.5-25 56.5-0.4Q56.5 5.1 53.77 7.75 51.05 10.4 45.35 10.4L45.35 10.4Q42.35 10.4 39.15 9.7 35.95 9 34.3 7.95L34.3 7.95Q34.25 7.5 34.25 7.05L34.25 7.05Q34.25 4.3 35.55 1.75L35.55 1.75 39.95 1.75Q40.5 2.8 40.75 4.55L40.75 4.55Q42.65 5.3 45.05 5.3ZM40.5-12.95Q40.5-9.2 41.52-7.7 42.55-6.2 45.02-6.2 47.5-6.2 49.5-7.6L49.5-7.6 49.5-19.45Q47.5-20.3 45.15-20.3L45.15-20.3Q40.5-20.3 40.5-12.95L40.5-12.95ZM72.3 0.4L72.3 0.4Q66.3 0.4 63.27-2.8 60.25-6 60.25-12.1L60.25-12.1Q60.25-15.8 61.3-18.48 62.35-21.15 64.15-22.6L64.15-22.6Q67.65-25.4 72.3-25.4 76.95-25.4 79.42-23.03 81.9-20.65 81.9-14.5L81.9-14.5Q81.9-10.9 78.34-10.9L78.34-10.9 67.5-10.9Q67.7-7.75 69.12-6.45 70.55-5.15 73.65-5.15L73.65-5.15Q75.34-5.15 76.9-5.55 78.45-5.95 79.15-6.35L79.15-6.35 79.84-6.75 81.34-2.75Q81.05-2.4 80.47-1.88 79.9-1.35 77.57-0.48 75.25 0.4 72.3 0.4ZM67.55-15.05L75.45-15.35Q75.55-16.05 75.55-17.05 75.55-18.05 74.75-19.18 73.95-20.3 71.97-20.3 70-20.3 68.95-19.1 67.9-17.9 67.55-15.05L67.55-15.05ZM84.44-21.15L84.94-25Q87.69-25.6 89.89-25.6 92.09-25.6 93.54-25.5L93.54-25.5 93.54-23Q94.79-24.05 96.87-24.73 98.94-25.4 100.84-25.4L100.84-25.4Q105.74-25.4 107.72-23.1 109.69-20.8 109.69-15.15L109.69-15.15 109.69-5.55Q111.64-4.8 112.44-3.85L112.44-3.85 111.94 0 100.44 0 99.94-3.85Q100.64-4.8 102.69-5.55L102.69-5.55 102.69-15.45Q102.69-18.15 101.82-19.07 100.94-20 98.69-20 96.44-20 94.19-18.4L94.19-18.4 94.19-5.55Q96.14-4.8 96.94-3.85L96.94-3.85 96.44 0 84.94 0 84.44-3.85Q85.14-4.8 87.19-5.55L87.19-5.55 87.19-19.45Q85.44-20.05 84.44-21.15L84.44-21.15ZM125.94-20.3L125.94-20.3Q121.34-20.3 121.34-12.4L121.34-12.4Q121.34-8.4 122.62-6.83 123.89-5.25 126.29-5.25L126.29-5.25Q130.09-5.25 132.99-5.95L132.99-5.95 134.49-2.1Q132.89-1.05 130.19-0.33 127.49 0.4 124.94 0.4L124.94 0.4Q114.14 0.4 114.14-12.1L114.14-12.1Q114.14-19.4 117.89-22.6L117.89-22.6Q121.24-25.4 126.04-25.4 130.84-25.4 134.04-23.6L134.04-23.6Q134.09-23.1 134.09-22.65L134.09-22.65Q134.09-19.8 132.79-17.25L132.79-17.25 128.39-17.25Q127.69-18.5 127.54-20.25L127.54-20.25Q126.94-20.3 125.94-20.3ZM148.69 0.4L148.69 0.4Q142.69 0.4 139.66-2.8 136.64-6 136.64-12.1L136.64-12.1Q136.64-15.8 137.69-18.48 138.74-21.15 140.54-22.6L140.54-22.6Q144.04-25.4 148.69-25.4 153.34-25.4 155.81-23.03 158.29-20.65 158.29-14.5L158.29-14.5Q158.29-10.9 154.74-10.9L154.74-10.9 143.89-10.9Q144.09-7.75 145.51-6.45 146.94-5.15 150.04-5.15L150.04-5.15Q151.74-5.15 153.29-5.55 154.84-5.95 155.54-6.35L155.54-6.35 156.24-6.75 157.74-2.75Q157.44-2.4 156.86-1.88 156.29-1.35 153.96-0.48 151.64 0.4 148.69 0.4ZM143.94-15.05L151.84-15.35Q151.94-16.05 151.94-17.05 151.94-18.05 151.14-19.18 150.34-20.3 148.36-20.3 146.39-20.3 145.34-19.1 144.29-17.9 143.94-15.05L143.94-15.05ZM202.18 0.3L195.68 0.3 193.13-7.6Q192.33-10 191.88-13.6L191.88-13.6 191.73-14.8 191.03-14.8Q190.53-10.9 189.53-7.65L189.53-7.65 187.18 0.3 180.08 0.3 173.78-19.35Q171.63-20.1 170.83-21.15L170.83-21.15 171.33-25 183.03-25 183.53-21.15Q182.63-20.1 180.48-19.35L180.48-19.35 183.38-6.6 184.08-6.6Q184.63-9.25 185.38-12.05L185.38-12.05 188.78-24.9 194.38-24.9 197.73-12.15 198.98-6.6 199.68-6.6Q201.53-15.05 202.18-17.95L202.18-17.95 202.48-19.35Q200.23-20.15 199.48-21.15L199.48-21.15 199.98-25 211.08-25 211.58-21.15Q210.73-20 208.43-19.25L208.43-19.25 202.18 0.3ZM224.78 0.4L224.78 0.4Q218.78 0.4 215.76-2.8 212.73-6 212.73-12.1L212.73-12.1Q212.73-15.8 213.78-18.48 214.83-21.15 216.63-22.6L216.63-22.6Q220.13-25.4 224.78-25.4 229.43-25.4 231.91-23.03 234.38-20.65 234.38-14.5L234.38-14.5Q234.38-10.9 230.83-10.9L230.83-10.9 219.98-10.9Q220.18-7.75 221.61-6.45 223.03-5.15 226.13-5.15L226.13-5.15Q227.83-5.15 229.38-5.55 230.93-5.95 231.63-6.35L231.63-6.35 232.33-6.75 233.83-2.75Q233.53-2.4 232.96-1.88 232.38-1.35 230.06-0.48 227.73 0.4 224.78 0.4ZM220.03-15.05L227.93-15.35Q228.03-16.05 228.03-17.05 228.03-18.05 227.23-19.18 226.43-20.3 224.46-20.3 222.48-20.3 221.43-19.1 220.38-17.9 220.03-15.05L220.03-15.05ZM235.38-31.65L235.88-35.5Q238.68-36.15 241.08-36.15 243.48-36.15 245.13-36L245.13-36 245.13-23.5Q246.18-24.25 247.93-24.83 249.68-25.4 251.28-25.4L251.28-25.4Q256.73-25.4 258.93-22.6 261.13-19.8 261.13-13.05L261.13-13.05Q261.13-9.3 260.1-6.58 259.08-3.85 257.33-2.4L257.33-2.4Q254.03 0.4 249.53 0.4L249.53 0.4Q246.13 0.4 242.83-1.3L242.83-1.3Q241.88 0 240.63 0L240.63 0 238.13 0 238.13-29.95Q236.38-30.55 235.38-31.65L235.38-31.65ZM249.13-4.7L249.13-4.7Q253.93-4.7 253.93-12.75L253.93-12.75Q253.93-17 253.1-18.53 252.28-20.05 250.23-20.05L250.23-20.05Q247.13-20.05 245.13-18.4L245.13-18.4 245.13-5.55Q247.28-4.7 249.13-4.7Z" opacity="1" transform="matrix(1,0,0,1,0,0)" fill="#000000" class="slogan-text-1" data-fill-palette-color="quaternary" id="text-1"></path></svg></g></svg></g></svg></g></svg></g></svg></g><defs></defs></svg><rect width="395.52" height="162.07088126271256" fill="none" stroke="none" visibility="hidden"></rect></g></svg></g></svg>